<svg xmlns="http://www.w3.org/2000/svg" version="1.1" xmlns:xlink="http://www.w3.org/1999/xlink" xmlns:svgjs="http://svgjs.dev/svgjs" width="2000" height="1000" preserveAspectRatio="none" viewBox="0 0 2000 1000"><g mask="url(&quot;#SvgjsMask1558&quot;)" fill="none"><rect width="2000" height="1000" x="0" y="0" fill="url(&quot;#SvgjsLinearGradient1559&quot;)"></rect><path d="M 0,332 C 133.4,272.8 400.2,56.2 667,36 C 933.8,15.8 1067.4,210.8 1334,231 C 1600.6,251.2 1866.8,155.8 2000,137L2000 1000L0 1000z" fill="rgba(81, 162, 255, 0.23)"></path><path d="M 0,428 C 133.4,443 400.2,513.6 667,503 C 933.8,492.4 1067.4,361.2 1334,375 C 1600.6,388.8 1866.8,532.6 2000,572L2000 1000L0 1000z" fill="rgba(43, 127, 255, 0.28)"></path><path d="M 0,735 C 100,764.4 300,863 500,882 C 700,901 800,813.8 1000,830 C 1200,846.2 1300,973.4 1500,963 C 1700,952.6 1900,815 2000,778L2000 1000L0 1000z" fill="rgba(24, 74, 126, 0.35)"></path></g><defs><mask id="SvgjsMask1558"><rect width="2000" height="1000" fill="#ffffff"></rect></mask><linearGradient x1="12.5%" y1="-25%" x2="87.5%" y2="125%" gradientUnits="userSpaceOnUse" id="SvgjsLinearGradient1559"><stop stop-color="#0e2a47" offset="0"></stop><stop stop-color="rgba(28, 57, 142, 1)" offset="0.9"></stop></linearGradient></defs></svg>